<?xml version="1.0" encoding="utf-8"?>
<!-- Generator: Adobe Illustrator 28.1.0, SVG Export Plug-In . SVG Version: 6.00 Build 0)  -->
<svg version="1.1" id="Camada_1" xmlns="http://www.w3.org/2000/svg" xmlns:xlink="http://www.w3.org/1999/xlink" x="0px" y="0px"
	 viewBox="0 0 60 60" style="enable-background:new 0 0 60 60;" xml:space="preserve">
<style type="text/css">
	.st0{fill:#004CFF;}
</style>
<g>
	<path class="st0" d="M40.9,29.9L14.8,47.2C13.6,48,13,49.4,13,50.7V55l31.7-20.8c1.4-1,2.3-2.6,2.3-4.3c0-1.7-0.8-3.3-2.3-4.3L13,5
		v4c0,1.4,0.7,2.7,1.8,3.4L40.9,29.9z"/>
	<path class="st0" d="M25.2,31.3c1.4,0.9,3.2,0.9,4.6,0l2.2-1.5L15.5,18.6c-1-0.7-2.5,0-2.5,1.3v3.3l8.6,5.7L25.2,31.3z"/>
</g>
</svg>
