<?xml version="1.0" encoding="utf-8"?>
<!-- Generator: Adobe Illustrator 28.1.0, SVG Export Plug-In . SVG Version: 6.00 Build 0)  -->
<svg version="1.1" id="Camada_1" xmlns="http://www.w3.org/2000/svg" xmlns:xlink="http://www.w3.org/1999/xlink" x="0px" y="0px"
	 viewBox="0 0 141 40" style="enable-background:new 0 0 141 40;" xml:space="preserve">
<style type="text/css">
	.st0{fill:#FFFFFF;}
</style>
<g>
	<path class="st0" d="M34.8,15.3h5.1v12.3h3.3V15.3h5.1v-2.9H34.8V15.3z"/>
	<path class="st0" d="M29,23l-6.8-10.6h-3.7v15.2h3.1V17l6.8,10.6h3.7V12.4H29V23z"/>
	<path class="st0" d="M61.3,18.5h-7.2v-6.1h-3.3v15.2h3.3v-6.2h7.2v6.2h3.3V12.4h-3.3V18.5z"/>
	<path class="st0" d="M6.6,12.4L0.5,27.6h3.4l1.2-3.2h6.3l1.2,3.2h3.4L10,12.4H6.6z M6.2,21.6l2.1-5.3l2.1,5.3H6.2z"/>
	<path class="st0" d="M91.5,12.1c-4.4,0-7.5,3.3-7.5,7.9c0,4.6,3.1,7.8,7.5,7.8c4.4,0,7.4-3.3,7.4-7.8
		C98.9,15.4,95.9,12.1,91.5,12.1z M91.5,24.8c-2.6,0-4.1-1.8-4.1-4.8c0-3,1.6-4.8,4.1-4.8c2.5,0,4.1,1.8,4.1,4.8
		C95.6,23,94,24.8,91.5,24.8z"/>
	<path class="st0" d="M137,22.5c-0.6,1.5-1.7,2.3-3.2,2.3c-2.6,0-4.1-1.8-4.1-4.8c0-3,1.6-4.8,4.1-4.8c1.5,0,2.7,0.8,3.2,2.3h3.5
		c-0.8-3.3-3.4-5.4-6.7-5.4c-4.4,0-7.5,3.3-7.5,7.9c0,4.6,3.1,7.8,7.5,7.8c3.3,0,5.9-2.1,6.7-5.4H137z"/>
	<path class="st0" d="M116.3,12.4l6.1,15.2h3.3l-6.1-15.2H116.3z"/>
	<path class="st0" d="M109.4,12.4H102v15.2h3.3v-5.5h4.2c3.5,0,5.6-1.8,5.6-4.8S112.9,12.4,109.4,12.4z M109.3,19.2h-4v-3.8h4
		c1.6,0,2.5,0.7,2.5,1.9S110.9,19.2,109.3,19.2z"/>
	<path class="st0" d="M81.5,17c0-2.9-2.1-4.6-5.6-4.6h-7.4v15.2h3.3v-5.9h3.6l3.3,5.9h3.6l-3.6-6.4C80.5,20.5,81.5,19,81.5,17z
		 M71.8,15.3h4c1.6,0,2.5,0.6,2.5,1.7s-0.8,1.7-2.5,1.7h-4L71.8,15.3z"/>
</g>
</svg>
