<?xml version="1.0" encoding="utf-8"?>
<!-- Generator: Adobe Illustrator 28.1.0, SVG Export Plug-In . SVG Version: 6.00 Build 0)  -->
<svg version="1.1" id="Camada_1" xmlns="http://www.w3.org/2000/svg" xmlns:xlink="http://www.w3.org/1999/xlink" x="0px" y="0px"
	 viewBox="0 0 141 40" style="enable-background:new 0 0 141 40;" xml:space="preserve">
<style type="text/css">
	.st0{fill:#FFFFFF;}
</style>
<g id="Layer_2">
	<g id="Layer_1-2">
		<path class="st0" d="M75.3,6.1c-5.3,0-9.6,4.3-9.6,9.6s4.3,9.6,9.6,9.6c5.3,0,9.6-4.3,9.6-9.6S80.5,6.1,75.3,6.1z M75.3,21.6
			c-3.3,0-6-2.7-6-6s2.7-6,6-6s6,2.7,6,6S78.6,21.6,75.3,21.6z"/>
		<path class="st0" d="M62.1,6.1c-0.3,0-0.7-0.1-1-0.1c-0.2,0-0.3,0-0.5,0c-0.2,0-0.3,0-0.5,0c-0.6,0.1-1.3,0.2-1.9,0.3
			c-1.3,0.3-2.5,0.9-3.5,1.8c-1.1,0.8-1.9,1.9-2.5,3.2c-0.3,0.6-0.5,1.3-0.6,1.9c-0.1,0.3-0.1,0.7-0.1,1c0,0.2,0,0.3,0,0.5l0,0.2
			l0,0.1v0.1l0,3.2l0,3.2l0,3.2H55l0-3.2l0-3.2l0-3.2v-0.1l0-0.1l0-0.2c0-0.1,0-0.2,0-0.3c0-0.2,0-0.4,0.1-0.6
			c0.1-0.4,0.2-0.8,0.4-1.1c0.3-0.7,0.8-1.3,1.4-1.8c0.6-0.5,1.4-0.9,2.2-1.1c0.4-0.1,0.8-0.2,1.2-0.2c0.1,0,0.2,0,0.3,0
			c0.1,0,0.2,0,0.3,0c0.2,0,0.4,0,0.6,0c0.8,0.1,1.6,0.3,2.3,0.7l1.8-3.1C64.6,6.7,63.4,6.3,62.1,6.1z"/>
		<path class="st0" d="M39.2,6c-5.3,0-9.6,4.3-9.6,9.6s4.3,9.6,9.6,9.6h3.1v-3.6h-3.1c-3.3,0-6-2.7-6-6s2.7-6,6-6c3.3,0,6,2.7,6,6
			l0,0v8.8l0,0c0,3.3-2.7,5.9-5.9,6c-1.6,0-3.1-0.6-4.2-1.7l-2.5,2.5c1.8,1.8,4.1,2.8,6.6,2.8v0c0,0,0,0,0.1,0h0.1v0
			c5.2-0.1,9.4-4.3,9.4-9.5l0-9.1C48.6,10.2,44.4,6,39.2,6z"/>
		<path class="st0" d="M96.4,6.1c-5.3,0-9.6,4.3-9.6,9.6s4.3,9.6,9.6,9.6h3.3v-3.6h-3.3c-3.3,0-6-2.7-6-6s2.7-6,6-6
			c3.1,0,5.7,2.4,6,5.5h0v18.4h3.6V15.6l0,0C105.9,10.4,101.6,6.1,96.4,6.1z"/>
		<polygon class="st0" points="111.4,6.6 110.9,6.6 110.2,7.7 109.5,6.6 108.9,6.6 108.9,8.5 109.5,8.5 109.5,7.6 110,8.3 
			110.3,8.3 110.8,7.5 110.8,8.5 111.4,8.5 		"/>
		<polygon class="st0" points="106.8,7 107.5,7 107.5,8.5 108.1,8.5 108.1,7 108.7,7 108.7,6.6 106.8,6.6 		"/>
	</g>
</g>
</svg>
