<?xml version="1.0" encoding="utf-8"?>
<!-- Generator: Adobe Illustrator 28.1.0, SVG Export Plug-In . SVG Version: 6.00 Build 0)  -->
<svg version="1.1" id="Camada_1" xmlns="http://www.w3.org/2000/svg" xmlns:xlink="http://www.w3.org/1999/xlink" x="0px" y="0px"
	 viewBox="0 0 141 40" style="enable-background:new 0 0 141 40;" xml:space="preserve">
<style type="text/css">
	.st0{fill:#FFFFFF;}
</style>
<g>
	<path class="st0" d="M35.5,9.5c0.5,0.1,0.9,0.2,1.4,0.3c4.6,0.9,8.1,5.1,8.3,9.9c0.2,5.2-3.5,9.9-8.8,10.7c-0.5,0.1-1,0.1-1.6,0.1
		c-6.9,0-13.8,0-20.6,0c-5.1,0-9.5-3.8-10.3-8.8c-0.1-0.4-0.1-0.8-0.2-1.2c0-0.3,0-0.7,0-1c0-0.1,0.1-0.2,0.1-0.4
		c0.3-4.2,3.3-7.9,7.3-9.1c0.8-0.2,1.6-0.3,2.4-0.5C20.8,9.5,28.1,9.5,35.5,9.5z M24.7,26c-0.4-0.5-0.8-1-1.2-1.4
		c-0.2-0.3-0.4-0.5-0.5-0.8c-0.7-1.8-1.6-3.5-3-5c-1.3-1.4-2.8-2.7-3.6-4.5c-0.3-0.8-1.2-1.2-2.1-1.4c-1.1-0.2-2,0.3-2.2,1.2
		c0,0.2-0.2,0.3-0.3,0.4c-0.6,0.5-0.8,1.2-0.6,1.9c0,0.1,0.1,0.3,0.2,0.4c0.1-0.3,0.2-0.4,0.2-0.6c0,0,0,0.1,0,0.1
		c0.4,0.1,0.8,0.2,1.2,0.1c0.2,0,0.4,0,0.4,0.2c0.2,0.7,0.5,1.4,0.6,2.1c0.3,1.7,0.8,3.3,2.3,4.4c0.2,0.1,0.2,0.4,0.3,0.6
		c0.1,0.4,0.1,0.8,0.2,1.2c0.2,0.5,0,0.8-0.5,0.8c-0.3,0-0.6-0.1-0.9-0.1c-0.5-0.1-1.1,0.2-1.2,0.6c0.1,0,0.2-0.1,0.4-0.1
		c0.1,0.2,0.2,0.3,0.3,0.5c0.1,0,0.3-0.1,0.3-0.1c0.3,0.2,0.6,0,0.9-0.1c0.4-0.2,0.7-0.3,1.2-0.1c-0.1,0.1-0.3,0.2-0.4,0.3
		c0.4,0,0.7,0.2,1,0.1c0.3,0,0.6-0.2,0.9-0.4c-0.2,0.3-0.3,0.5-0.5,0.8c0,0,0.1,0.1,0.1,0.1c0.3-0.1,0.6-0.3,1-0.4
		c0.3-0.1,0.6-0.3,0.8-0.2c0.4,0.1,0.7,0.1,1.1-0.2c-0.2-0.1-0.4-0.2-0.6-0.2c-0.2,0-0.5,0-0.7-0.1c-0.1-0.1-0.3-0.3-0.3-0.4
		c0.1-0.5,0.3-0.9,0.5-1.4c0.6,0.4,1.5,0.4,2,1.2c0.2,0.3,0.5,0.5,1,0.4c0.2-0.1,0.5,0,0.7,0.1C24.2,26,24.4,26,24.7,26z M26.2,22.7
		c0,1.4,0.8,2.7,2.2,3.3c1.4,0.6,2.7,0.4,3.9-0.6c0.6-0.6,1.3-1.1,1.8-1.8c0.6-0.8,1.2-1.4,2.1-2c0.7-0.5,1.3-1.2,1.9-1.9
		c1.4-1.5,1.4-3.7-0.1-5.1c-1.4-1.4-3.7-1.4-5.2,0c-0.5,0.5-1.1,1-1.6,1.6c-0.3,0.4-0.5,0.9-0.9,1.2c-0.4,0.3-0.9,0.5-1.3,0.8
		c-0.7,0.6-1.4,1.3-2,2C26.5,21,26.2,21.8,26.2,22.7z"/>
	<path class="st0" d="M121,20.4c0.1-1.1-0.4-1.7-1.5-1.8c-1.3-0.1-2,0.4-2.5,1.6c0,0.1-0.1,0.2-0.2,0.4c-0.6-0.4-1.1-0.7-1.6-1
		c0.4-1.7,1.7-2.7,3.6-2.8c0.7,0,1.4,0.1,2.1,0.3c1.3,0.4,2,1.5,2,2.9c0,0.6,0.1,0.9,0.7,1.1c0.4,0.1,0.8,0.4,1.3,0.7
		c0-1.6,0-3.1,0-4.7c0.7,0,1.3,0,1.9,0c0,3.1,0,6.2,0,9.4c-0.6,0-1.2,0-1.9,0c0-0.3,0-0.5-0.1-0.7c-0.1-1.7-1.1-2.8-2.8-3.2
		c-1.3-0.3-2.5-0.2-3.8,0.2c-0.3,0.1-0.7,0.3-0.9,0.6c-0.5,0.5-0.4,1.3,0.3,1.7c0.8,0.4,2.3,0.1,2.8-0.7c0.2-0.3,0.3-0.7,0.4-1.1
		c0.6-0.1,1.2,0.1,1.7,0.4c0.1,0,0.1,0.2,0.1,0.2c0,0.9,0,1.8,0,2.7c-0.6,0-1.1,0-1.7,0c0-0.2,0-0.4-0.1-0.7c-1.2,1.2-2.6,1.2-4,0.9
		c-1.1-0.2-1.8-1-2-2c-0.3-1,0-1.9,0.8-2.7c0.9-0.8,2.1-1.2,3.3-1.3C119.9,20.4,120.4,20.4,121,20.4z"/>
	<path class="st0" d="M89.8,17.8c0-0.4,0-0.6,0-0.9c0.6,0,1.1,0,1.7,0c0.1,0,0.2,0.2,0.2,0.3c0,0.3,0,0.6,0,0.9c0,2.4,0,4.8,0,7.2
		c0,0.6-0.1,1.2-0.2,1.8c-0.3,1.4-1.2,2.3-2.6,2.8c-1.4,0.4-2.7,0.4-4-0.1c-1-0.4-1.7-1.1-1.9-2.2c0.6-0.2,1.3-0.4,1.9-0.6
		c0.7,1.1,1.8,1.5,3.2,1.1c1.1-0.3,1.8-1.3,1.8-2.7c0,0-0.1,0-0.1,0c-1.1,1.2-2.4,1.2-3.9,0.8c-1.5-0.4-2.5-1.4-2.9-2.9
		c-0.4-1.2-0.3-2.5,0-3.7c0.7-2.4,2.7-3.3,4.8-3.1C88.4,16.8,89.2,17,89.8,17.8z M87.1,24.7c1.2,0,1.9-0.6,2.3-1.7
		c0.2-0.7,0.3-1.5,0.1-2.3c-0.2-1.3-1.1-2.2-2.3-2.2c-1.4-0.1-2.3,0.6-2.6,2c-0.2,0.8-0.2,1.6,0,2.3C85,24,85.9,24.7,87.1,24.7z"/>
	<path class="st0" d="M103.9,17.4c-0.6,0.3-1.2,0.6-1.9,0.9c-0.1-0.3-0.2-0.6-0.3-0.8c-0.4-1.1-1.3-1.7-2.5-1.8
		c-2.2-0.2-3.6,0.9-4.1,3.1c-0.3,1.4-0.2,2.8,0.4,4.2c0.9,1.8,3.3,2.4,5,1.4c0.7-0.4,1.1-1,1.3-1.7c0.1-0.2,0.1-0.4,0.2-0.7
		c0.7,0.3,1.3,0.5,1.9,0.7c-0.4,2.1-2.2,3.7-4.3,4c-1.8,0.2-3.5-0.1-4.9-1.4c-0.7-0.6-1.2-1.4-1.5-2.4c-0.6-1.8-0.6-3.7,0-5.5
		c0.9-2.6,3.3-4,6-3.7c1.2,0.1,2.4,0.5,3.3,1.4C103.3,15.7,103.6,16.5,103.9,17.4z"/>
	<path class="st0" d="M105.3,26.4c0-4.3,0-8.5,0-12.7c0.6,0,1.3,0,2,0c0,1.3,0,2.6,0,3.9c0.1,0,0.1,0,0.1,0c1.1-1,2.5-1.1,3.8-0.7
		c1.5,0.4,2.4,1.5,2.4,2.9c0.1,2.2,0,4.3,0,6.6c-0.6,0-1.2,0-1.8,0c-0.1,0-0.2-0.2-0.2-0.4c0-1.3,0-2.6,0-3.9c0-0.5,0-1,0-1.5
		c0-1.7-1.2-2.2-2.6-1.9c-1.2,0.3-1.8,1.2-1.9,2.5c0,1.6,0,3.2,0,4.7c0,0.4-0.1,0.6-0.5,0.5C106.3,26.3,105.8,26.4,105.3,26.4z"/>
	<path class="st0" d="M65,20.6c-0.5-0.3-1-0.6-1.4-0.9c-0.1-0.1-0.1-0.3-0.1-0.4c0.5-1.4,1.5-2.2,3-2.5c0.7-0.1,1.5-0.1,2.3,0.1
		c1.5,0.3,2.4,1.5,2.4,3c0,2.1,0,4.1,0,6.2c0,0.3-0.1,0.4-0.4,0.4c-0.4,0-0.9,0-1.3,0c0-0.3,0-0.5,0-0.8c-1.2,1.2-2.6,1.3-4,0.9
		c-1.2-0.3-1.9-1.1-2.1-2.3c-0.2-1.1,0.3-2,1.3-2.6c0.9-0.6,2-0.8,3-1c0.4-0.1,0.8-0.1,1.2-0.2c0.3,0,0.3-0.2,0.3-0.4
		c-0.1-0.8-0.6-1.3-1.4-1.4c-1.4-0.1-2.2,0.3-2.7,1.6C65.2,20.3,65.1,20.4,65,20.6z M69.3,22.1c-0.1,0-0.2,0-0.3,0
		c-0.8,0.2-1.5,0.3-2.3,0.5c-0.3,0.1-0.6,0.2-0.8,0.4c-0.7,0.5-0.5,1.5,0.2,1.8c0.8,0.4,2.2,0,2.8-0.6c0.2-0.2,0.3-0.5,0.3-0.7
		C69.3,23,69.3,22.6,69.3,22.1z"/>
	<path class="st0" d="M81.4,26.4c-0.6,0-1.1,0-1.7,0c-0.3,0-0.2-0.2-0.2-0.4c0-1.1,0-2.2,0-3.3c0-0.6,0-1.3,0-1.9c0-0.8-0.1-1.6-1-2
		c-0.9-0.4-1.9-0.2-2.6,0.4c-0.5,0.4-0.8,1-0.8,1.7c0,1.7,0,3.3,0,5c0,0.4-0.1,0.5-0.5,0.5c-0.5,0-0.9,0-1.4,0c0-3.2,0-6.3,0-9.4
		c0.6,0,1.2,0,1.9,0c0,0.2,0,0.4,0,0.6c1.3-1.1,2.8-1.2,4.3-0.7c1.4,0.5,2.1,1.6,2.2,3c0.1,2.1,0,4.2,0,6.3
		C81.4,26.2,81.4,26.3,81.4,26.4z"/>
	<path class="st0" d="M128.9,26.4c0-3.2,0-6.3,0-9.4c0.6,0,1.2,0,1.9,0c0,0.2,0,0.4,0,0.7c0.1-0.1,0.2-0.1,0.3-0.2
		c1.3-1.1,4.8-1.2,5.9,1.3c0.2,0.4,0.3,0.9,0.3,1.4c0,2,0,4,0,6c0,0.1,0,0.2,0,0.3c-0.6,0-1.2,0-1.7,0c-0.3,0-0.2-0.2-0.2-0.4
		c0-1.8,0-3.5,0-5.3c0-0.2,0-0.5,0-0.7c-0.2-1.1-1.2-1.7-2.4-1.4c-1.1,0.3-1.9,1.1-1.9,2.3c0,1.7,0,3.3,0,5c0,0.4-0.1,0.5-0.5,0.5
		C129.9,26.3,129.4,26.4,128.9,26.4z"/>
	<path class="st0" d="M62.8,24.4c0,0.7,0,1.3,0,1.9c-2.9,0-5.8,0-8.7,0c0-4.2,0-8.4,0-12.7c0.6,0,1.3,0,1.9,0c0,3.6,0,7.2,0,10.8
		C58.3,24.4,60.5,24.4,62.8,24.4z"/>
	<path class="st0" d="M126,16.2c-0.7,0-1.3-0.6-1.3-1.3c0-0.7,0.6-1.3,1.3-1.3c0.7,0,1.3,0.6,1.3,1.3
		C127.3,15.7,126.7,16.2,126,16.2z"/>
	<path class="st0" d="M17.4,25.6c0.7-0.2,0.7-0.8,0.9-1.3c0.3,0.4,0.6,0.9,0.9,1.3c0,0.1,0,0.2,0,0.3c-0.2,0.3-0.7,0.4-1,0.1
		c-0.1-0.1-0.3-0.1-0.4-0.1c-0.1,0-0.3-0.1-0.4-0.2C17.4,25.7,17.4,25.6,17.4,25.6z"/>
	<path class="st0" d="M30.2,19.6c0.2,0.8,0.5,1.5,1.1,2c0.2,0.2,0.5,0.4,0.8,0.5c0.5,0.3,0.6,0.2,0.9-0.3c0.1-0.2,0.2-0.4,0.2-0.6
		c0-0.2-0.1-0.4-0.3-0.4c-1.3-0.7-1.6-2.2-0.6-3.3c0.5-0.6,1.1-1.2,1.7-1.7c0.8-0.8,2.1-0.7,2.9,0.1c0.8,0.8,0.8,2,0,2.9
		c0,0-0.1,0.1-0.1,0.1c-0.5,0.6-1.1,1.2-1.6,1.7c-0.1,0-0.1-0.1-0.2-0.1c0-0.1-0.1-0.3-0.1-0.4c-0.3-1-1-1.8-2-2.3
		c-0.3-0.1-0.5-0.1-0.6,0.2c-0.1,0.2-0.2,0.4-0.2,0.5c-0.1,0.4-0.1,0.6,0.3,0.8c1.1,0.6,1.4,2.2,0.5,3.1c-0.6,0.6-1.2,1.2-1.8,1.8
		c-0.8,0.7-2,0.7-2.8,0c-0.7-0.7-1-1.9-0.3-2.7C28.7,20.8,29.5,20.2,30.2,19.6z"/>
</g>
</svg>
