<?xml version="1.0" encoding="utf-8"?>
<!-- Generator: Adobe Illustrator 28.1.0, SVG Export Plug-In . SVG Version: 6.00 Build 0)  -->
<svg version="1.1" id="Camada_1" xmlns="http://www.w3.org/2000/svg" xmlns:xlink="http://www.w3.org/1999/xlink" x="0px" y="0px"
	 viewBox="0 0 60 60" style="enable-background:new 0 0 60 60;" xml:space="preserve">
<style type="text/css">
	.st0{clip-path:url(#SVGID_00000003814148019907035400000004773610111259573936_);}
	.st1{fill:url(#SVGID_00000167358880587212781910000001681272331757698690_);}
	.st2{clip-path:url(#SVGID_00000106849015119786285950000010254697642671592338_);}
	.st3{fill:url(#SVGID_00000066492767718708423730000016230946149666701710_);}
	.st4{clip-path:url(#SVGID_00000035532039661055377030000007580698934284894125_);}
	.st5{fill:url(#SVGID_00000037663668023910186600000000225268141224843141_);}
</style>
<g>
	<g>
		<defs>
			<path id="SVGID_1_" d="M44.9,12.9h8.6c0.7,0,1.2,0.5,1.2,1.2v31.8c0,0.7-0.5,1.2-1.2,1.2h-8.6c-0.7,0-1.2-0.5-1.2-1.2V14.1
				C43.7,13.5,44.3,12.9,44.9,12.9z"/>
		</defs>
		<clipPath id="SVGID_00000082329135955685159160000000326674531747679678_">
			<use xlink:href="#SVGID_1_"  style="overflow:visible;"/>
		</clipPath>
		<g style="clip-path:url(#SVGID_00000082329135955685159160000000326674531747679678_);">
			
				<linearGradient id="SVGID_00000175297941900135865010000011130505338172903048_" gradientUnits="userSpaceOnUse" x1="-815.3425" y1="-50.749" x2="-815.0886" y2="-50.749" gradientTransform="matrix(91.4326 -33.7132 33.7132 91.4326 76292.8438 -22811.6758)">
				<stop  offset="0" style="stop-color:#B02DE9"/>
				<stop  offset="2.000000e-02" style="stop-color:#B02DE9"/>
				<stop  offset="0.8" style="stop-color:#6D00CC"/>
				<stop  offset="1" style="stop-color:#6D00CC"/>
			</linearGradient>
			<polygon style="fill:url(#SVGID_00000175297941900135865010000011130505338172903048_);" points="32.6,17 53.4,9.4 65.8,43 
				45,50.6 			"/>
		</g>
	</g>
	<g>
		<defs>
			<path id="SVGID_00000075159369361642592590000000007605782527956636_" d="M19.7,13.4L5.4,41.7C5.1,42.3,5.4,43,6,43.3l7.7,3.9
				c0.6,0.3,1.3,0.1,1.6-0.5l14.3-28.4c0.3-0.6,0.1-1.3-0.5-1.6l-7.7-3.9c-0.2-0.1-0.4-0.1-0.5-0.1C20.3,12.7,19.9,12.9,19.7,13.4"
				/>
		</defs>
		<clipPath id="SVGID_00000060003806963791922320000003033677634039272601_">
			<use xlink:href="#SVGID_00000075159369361642592590000000007605782527956636_"  style="overflow:visible;"/>
		</clipPath>
		<g style="clip-path:url(#SVGID_00000060003806963791922320000003033677634039272601_);">
			
				<linearGradient id="SVGID_00000008108354722432686840000002657804328288916381_" gradientUnits="userSpaceOnUse" x1="-815.5223" y1="-50.6189" x2="-815.2685" y2="-50.6189" gradientTransform="matrix(98.288 -42.4923 42.4923 98.288 82319.75 -29646.0586)">
				<stop  offset="0" style="stop-color:#FF00FF"/>
				<stop  offset="0" style="stop-color:#FF00FF"/>
				<stop  offset="0.17" style="stop-color:#E90CF9"/>
				<stop  offset="0.54" style="stop-color:#C023ED"/>
				<stop  offset="0.73" style="stop-color:#B02DE9"/>
				<stop  offset="1" style="stop-color:#B02DE9"/>
			</linearGradient>
			<polygon style="fill:url(#SVGID_00000008108354722432686840000002657804328288916381_);" points="-7.5,18.2 25.9,3.7 42.5,42 
				9,56.5 			"/>
		</g>
	</g>
	<g>
		<defs>
			<path id="SVGID_00000000204654467725599160000001932205854621405334_" d="M31.7,13.5l-6.1,30.9c-0.1,0.6,0.3,1.3,0.9,1.4l8.4,1.7
				c0.6,0.1,1.3-0.3,1.4-0.9l6.1-30.9c0.1-0.6-0.3-1.3-0.9-1.4l-8.4-1.7c-0.1,0-0.2,0-0.2,0C32.3,12.5,31.8,12.9,31.7,13.5"/>
		</defs>
		<clipPath id="SVGID_00000155828110942980269590000015952486786871348105_">
			<use xlink:href="#SVGID_00000000204654467725599160000001932205854621405334_"  style="overflow:visible;"/>
		</clipPath>
		<g style="clip-path:url(#SVGID_00000155828110942980269590000015952486786871348105_);">
			
				<linearGradient id="SVGID_00000038401815418360813330000015921840116833893291_" gradientUnits="userSpaceOnUse" x1="-817.5261" y1="-53.156" x2="-817.2722" y2="-53.156" gradientTransform="matrix(201.4815 -74.1707 74.1707 201.4815 168666.0156 -49886.5117)">
				<stop  offset="0" style="stop-color:#FF00FF"/>
				<stop  offset="2.000000e-02" style="stop-color:#FF00FF"/>
				<stop  offset="9.000000e-02" style="stop-color:#E90CF9"/>
				<stop  offset="0.23" style="stop-color:#C023ED"/>
				<stop  offset="0.3" style="stop-color:#B02DE9"/>
				<stop  offset="0.42" style="stop-color:#A42BE3"/>
				<stop  offset="0.63" style="stop-color:#8626D5"/>
				<stop  offset="0.85" style="stop-color:#6021C3"/>
				<stop  offset="1" style="stop-color:#6021C3"/>
			</linearGradient>
			<polygon style="fill:url(#SVGID_00000038401815418360813330000015921840116833893291_);" points="14.1,16.7 40.5,7 53.9,43.4 
				27.5,53.2 			"/>
		</g>
	</g>
</g>
</svg>
