<?xml version="1.0" encoding="utf-8"?>
<!-- Generator: Adobe Illustrator 28.1.0, SVG Export Plug-In . SVG Version: 6.00 Build 0)  -->
<svg version="1.1" id="Camada_1" xmlns="http://www.w3.org/2000/svg" xmlns:xlink="http://www.w3.org/1999/xlink" x="0px" y="0px"
	 viewBox="0 0 141 40" style="enable-background:new 0 0 141 40;" xml:space="preserve">
<style type="text/css">
	.st0{fill:#FFFFFF;}
</style>
<g>
	<g>
		<g id="Wordmark">
			<path class="st0" d="M52.5,12.4h3l5,9.1l5-9.1h2.9v15h-2.4V15.9l-4.4,8h-2.3l-4.4-8v11.5h-2.4V12.4z"/>
			<path class="st0" d="M76.3,27.6c-1.1,0-2.1-0.2-3-0.7c-0.9-0.5-1.5-1.2-2-2.1c-0.5-0.9-0.7-1.9-0.7-3c0-1.2,0.2-2.2,0.7-3.1
				c0.5-0.9,1.1-1.6,1.9-2.1c0.8-0.5,1.8-0.8,2.8-0.8c1.1,0,2,0.3,2.7,0.8c0.8,0.5,1.4,1.2,1.8,2.1c0.4,0.9,0.6,2,0.6,3.2v0.7h-8.2
				c0.2,0.9,0.5,1.6,1.1,2.2c0.6,0.5,1.3,0.8,2.2,0.8c0.7,0,1.3-0.1,1.9-0.3c0.5-0.2,1-0.5,1.5-1l1.3,1.6
				C79.8,27.1,78.2,27.6,76.3,27.6z M78.1,18.7c-0.5-0.5-1.2-0.8-2-0.8c-0.8,0-1.5,0.3-2,0.8c-0.5,0.5-0.9,1.2-1,2.1H79
				C78.9,20,78.6,19.3,78.1,18.7z"/>
			<path class="st0" d="M84.2,18.2H82v-2h2.2v-3.3h2.3v3.3H90v2h-3.4v5c0,0.8,0.1,1.4,0.4,1.8c0.3,0.4,0.8,0.5,1.5,0.5
				c0.3,0,0.6,0,0.8,0c0.2,0,0.5-0.1,0.7-0.1v2c-0.3,0.1-0.6,0.1-0.9,0.2c-0.3,0.1-0.7,0.1-1,0.1c-2.5,0-3.8-1.4-3.8-4.1L84.2,18.2z
				"/>
			<path class="st0" d="M102.1,27.4h-2.3v-1.6c-0.4,0.6-0.9,1-1.6,1.4c-0.6,0.3-1.3,0.5-2.1,0.5c-1,0-1.9-0.3-2.6-0.8
				c-0.8-0.5-1.4-1.2-1.8-2.1c-0.4-0.9-0.7-1.9-0.7-3c0-1.1,0.2-2.2,0.7-3c0.4-0.9,1.1-1.6,1.8-2.1c0.8-0.5,1.7-0.8,2.7-0.8
				c0.8,0,1.5,0.1,2.1,0.4c0.6,0.3,1.1,0.7,1.5,1.3v-1.4h2.3L102.1,27.4z M99.8,20.1c-0.3-0.6-0.6-1.1-1.2-1.5
				c-0.5-0.4-1.2-0.6-1.9-0.6c-1,0-1.8,0.3-2.4,1c-0.6,0.7-0.9,1.6-0.9,2.7c0,1.2,0.3,2.1,0.9,2.7c0.6,0.7,1.3,1,2.3,1
				c0.7,0,1.4-0.2,1.9-0.6c0.6-0.4,1-0.9,1.2-1.5L99.8,20.1z"/>
		</g>
		<g>
			<path class="st0" d="M121.5,27.6c-0.9,0-1.8,0-2.7,0c-0.2-0.7-0.4-1.3-0.6-2c-0.2-0.5-0.4-1-0.5-1.6c0-0.2-0.1-0.2-0.3-0.2
				c-2.2,0-4.4,0-6.6,0c-0.2,0-0.3,0.1-0.3,0.2c-0.3,1.1-0.7,2.2-1,3.3c-0.1,0.2-0.1,0.3-0.3,0.3c-0.8,0-1.5,0-2.4,0
				c0.2-0.7,0.4-1.4,0.7-2c1.4-4.3,3.2-8.4,5.1-12.5c0.1-0.2,0.2-0.3,0.5-0.3c0.8,0,1.5,0,2.3,0c0.2,0,0.4,0.1,0.5,0.3
				c1.5,3.1,2.8,6.2,4,9.4c0.6,1.6,1.1,3.2,1.7,4.9C121.5,27.4,121.5,27.5,121.5,27.6z M114.2,15.1c0,0-0.1,0-0.1,0
				c-1,2.1-1.9,4.3-2.7,6.6c1.9,0,3.7,0,5.6,0C116,19.5,115.1,17.3,114.2,15.1z"/>
			<path class="st0" d="M125.9,27.6c-0.8,0-1.6,0-2.5,0c0-4.9,0-9.9,0-14.8c0.8,0,1.6,0,2.5,0C125.9,17.8,125.9,22.7,125.9,27.6z"/>
		</g>
	</g>
	<path class="st0" d="M30.1,5c-8.3,0-15,6.7-15,15c0,8.3,6.7,15,15,15s15-6.7,15-15C45.1,11.7,38.4,5,30.1,5z M30.1,29.5
		c-5.3,0-9.5-4.3-9.5-9.5c0-5.3,4.3-9.5,9.5-9.5s9.5,4.3,9.5,9.5C39.6,25.3,35.4,29.5,30.1,29.5z"/>
</g>
</svg>
