<?xml version="1.0" encoding="utf-8"?>
<!-- Generator: Adobe Illustrator 28.1.0, SVG Export Plug-In . SVG Version: 6.00 Build 0)  -->
<svg version="1.1" id="Camada_1" xmlns="http://www.w3.org/2000/svg" xmlns:xlink="http://www.w3.org/1999/xlink" x="0px" y="0px"
	 viewBox="0 0 60 60" style="enable-background:new 0 0 60 60;" xml:space="preserve">
<style type="text/css">
	.st0{fill:#FFFFFF;}
</style>
<g>
	<path class="st0" d="M57.1,51.8c-1.1,0-1.9-0.7-2.9-1.5c-1-0.9-2.2-1.8-3.9-1.8s-2.8,1-3.9,1.8c-1,0.8-1.8,1.5-2.9,1.5
		c-0.7,0-1.3-0.3-1.8-0.6c5.2-2.5,9.2-5.1,12.3-7.9c0.2-0.2,0.3-0.6,0.2-0.8c-0.1-0.3-0.4-0.5-0.7-0.5l-47,3c-0.3,0-0.5,0.2-0.6,0.4
		c-0.1,0.2-0.1,0.5,0,0.7l1.5,2.8c-0.8,0.5-1.5,1-2.2,1.6c-0.8,0.6-1.7,1.4-2.2,1.4c-0.4,0-0.8,0.3-0.8,0.8s0.3,0.8,0.8,0.8
		c1,0,2-0.8,3.1-1.7c0.7-0.6,1.6-1.2,2.4-1.7c0.1,0,0.2,0,0.3-0.1c0.1,0,0.1-0.1,0.2-0.1c0.3-0.1,0.6-0.2,0.9-0.3
		c0.3,0,0.8,0.5,1.4,1c1.1,1,2.6,2.5,5.3,2.8c1.7,0,2.8-1,3.9-1.8c1-0.8,1.8-1.5,2.9-1.5s1.9,0.7,2.9,1.5c1,0.9,2.2,1.8,3.9,1.8
		s2.8-1,3.9-1.8c1-0.8,1.8-1.5,2.9-1.5s1.9,0.7,2.9,1.5c0,0,0,0,0,0c0.1,0.1,0.2,0.2,0.2,0.2c1,0.8,2.1,1.6,3.6,1.6
		c1.7,0,2.8-1,3.9-1.8c1-0.8,1.8-1.5,2.9-1.5s1.9,0.7,2.9,1.5c1,0.9,2.2,1.8,3.9,1.8c0.4,0,0.8-0.3,0.8-0.8S57.5,51.8,57.1,51.8z
		 M32.9,50.3c-1,0.8-1.8,1.5-2.9,1.5s-1.9-0.7-2.9-1.5c-1-0.9-2.2-1.8-3.9-1.8s-2.8,1-3.9,1.8c-1,0.8-1.8,1.5-2.8,1.5
		c-2.1-0.3-3.4-1.4-4.4-2.4c-0.8-0.8-1.5-1.4-2.5-1.4c0,0-0.1,0-0.1,0C9.2,48,9,48.1,8.7,48.2l-1-1.8l43.6-2.8
		c-2.9,2.3-6.5,4.4-10.9,6.5c-1-0.8-2.1-1.7-3.7-1.7C35.1,48.4,33.9,49.4,32.9,50.3z"/>
	<path class="st0" d="M24.8,13.8c7.4,5.1,12.9,13.8,16.1,25.6c0.1,0.4,0.5,0.6,0.9,0.5c2.4-0.6,3.8-0.1,5.5,0.6l0.6,0.2
		c0.1,0,0.2,0.1,0.3,0.1c0.2,0,0.4-0.1,0.5-0.2c0.2-0.2,0.3-0.5,0.2-0.8c-3.9-13.2-15.6-25-23.5-27.5c-0.4-0.1-0.7,0.1-0.9,0.4
		C24.4,13.2,24.5,13.6,24.8,13.8z M47.1,38.8c-1-0.4-2-0.7-3.2-0.7c-0.5,0-1,0-1.6,0.2c-2.6-9-6.4-16.2-11.5-21.5
		C37,21.3,43.9,29.7,47.1,38.8z"/>
	<path class="st0" d="M10.2,42.7c0.1,0,0.3,0,0.4-0.1c8-4.9,16.8-5.4,26.4-1.6c0.2,0.1,0.5,0.1,0.7-0.1c0.2-0.2,0.3-0.4,0.3-0.7
		C35.3,23.1,20.2,10.9,10.7,6.8C10.4,6.7,10,6.8,9.8,7C9.6,7.3,9.6,7.6,9.7,7.9c3.4,5.7,10.2,20.5-0.1,33.6c-0.2,0.3-0.2,0.7,0,1
		C9.8,42.6,10,42.7,10.2,42.7z M12.2,9.2c8.9,4.6,21.2,15.4,24.1,30c-8.4-3.1-16.4-2.9-23.7,0.6C19.9,28,15.6,15.7,12.2,9.2z"/>
</g>
</svg>
