<?xml version="1.0" encoding="utf-8"?>
<!-- Generator: Adobe Illustrator 28.1.0, SVG Export Plug-In . SVG Version: 6.00 Build 0)  -->
<svg version="1.1" id="Camada_1" xmlns="http://www.w3.org/2000/svg" xmlns:xlink="http://www.w3.org/1999/xlink" x="0px" y="0px"
	 viewBox="0 0 60 60" style="enable-background:new 0 0 60 60;" xml:space="preserve">
<style type="text/css">
	.st0{fill:#ED6C5D;}
</style>
<path id="Shape" class="st0" d="M49.9,17.2c-2.4,0-4.4,1.6-5,3.9h-7.2c-2.8,0-5.1,2.3-5.1,5.1c0,1.4-1.1,2.5-2.5,2.5h-1
	c-0.6-2.2-2.6-3.9-5-3.9c-2.4,0-4.4,1.6-5,3.9h-4.1c-0.6-2.2-2.6-3.9-5-3.9C7.3,24.9,5,27.2,5,30s2.3,5.1,5.1,5.1
	c2.4,0,4.4-1.6,5-3.9h4.1c0.6,2.2,2.6,3.9,5,3.9s4.4-1.6,5-3.8h1c1.4,0,2.5,1.1,2.5,2.5c0,2.8,2.3,5.1,5.1,5.1h1.7
	c0.6,2.2,2.6,3.9,5,3.9c2.8,0,5.1-2.3,5.1-5.1c0-2.8-2.3-5.1-5.1-5.1c-2.4,0-4.4,1.6-5,3.9h-1.7c-1.4,0-2.5-1.1-2.5-2.5
	c0-1.5-0.7-2.9-1.8-3.8c1.1-0.9,1.8-2.3,1.8-3.8c0-1.4,1.1-2.5,2.5-2.5h7.2c0.6,2.2,2.6,3.9,5,3.9c2.8,0,5.1-2.3,5.1-5.1
	C55,19.6,52.7,17.2,49.9,17.2z M10.1,32.6c-1.4,0-2.6-1.2-2.6-2.6c0-1.4,1.2-2.6,2.6-2.6s2.6,1.2,2.6,2.6
	C12.7,31.4,11.6,32.6,10.1,32.6z M24.1,32.6c-1.4,0-2.6-1.2-2.6-2.6c0-1.4,1.2-2.6,2.6-2.6c1.4,0,2.6,1.2,2.6,2.6
	C26.8,31.4,25.6,32.6,24.1,32.6z M44.4,35.1c1.4,0,2.6,1.2,2.6,2.6c0,1.4-1.2,2.6-2.6,2.6s-2.6-1.2-2.6-2.6
	C41.8,36.2,43,35.1,44.4,35.1z M49.9,25c-1.4,0-2.6-1.2-2.6-2.6c0-1.4,1.2-2.6,2.6-2.6c1.4,0,2.6,1.2,2.6,2.6S51.3,25,49.9,25z"/>
</svg>
