<?xml version="1.0" encoding="utf-8"?>
<!-- Generator: Adobe Illustrator 28.1.0, SVG Export Plug-In . SVG Version: 6.00 Build 0)  -->
<svg version="1.1" id="Camada_1" xmlns="http://www.w3.org/2000/svg" xmlns:xlink="http://www.w3.org/1999/xlink" x="0px" y="0px"
	 viewBox="0 0 141 40" style="enable-background:new 0 0 141 40;" xml:space="preserve">
<style type="text/css">
	.st0{fill:#FFFFFF;}
</style>
<g>
	<path class="st0" d="M50.3,19.4c0,4.9,3.2,8.3,7.5,8.3s7.5-3.4,7.5-8.3s-3.2-8.3-7.5-8.3S50.3,14.5,50.3,19.4z M62.4,19.4
		c0,3.5-1.9,5.8-4.6,5.8c-2.7,0-4.6-2.3-4.6-5.8s1.9-5.8,4.6-5.8C60.5,13.6,62.4,15.9,62.4,19.4z"/>
	<path class="st0" d="M73.4,27.7c3.3,0,5.2-2.8,5.2-6.1s-1.9-6.1-5.2-6.1c-1.5,0-2.7,0.6-3.4,1.5v-1.3h-2.7v15.9H70v-5.3
		C70.8,27.1,71.9,27.7,73.4,27.7z M70,21.3c0-2.2,1.3-3.4,2.9-3.4c2,0,3,1.5,3,3.8s-1.1,3.8-3,3.8c-1.7,0-2.9-1.2-2.9-3.4V21.3z"/>
	<path class="st0" d="M85.9,27.7c2.4,0,4.2-1.2,5.1-3.3l-2.3-0.9c-0.4,1.2-1.4,1.9-2.7,1.9c-1.7,0-2.9-1.2-3.2-3.3h8.3v-0.9
		c0-3.2-1.8-5.8-5.2-5.8s-5.6,2.7-5.6,6.1C80.2,25.3,82.6,27.7,85.9,27.7z M85.8,17.7c1.7,0,2.5,1.1,2.5,2.4h-5.4
		C83.3,18.6,84.4,17.7,85.8,17.7z"/>
	<path class="st0" d="M93.1,27.5h2.7v-6.9c0-1.7,1.2-2.6,2.5-2.6c1.5,0,2.1,1.1,2.1,2.5v7h2.7v-7.8c0-2.5-1.5-4.3-4-4.3
		c-1.5,0-2.6,0.7-3.3,1.5v-1.3h-2.7V27.5z"/>
	<path class="st0" d="M110.9,11.3l-6.1,16.2h2.9l1.4-3.7h7l1.4,3.7h2.9l-6.1-16.2H110.9z M112.5,14.5l2.6,6.8H110L112.5,14.5z"/>
	<path class="st0" d="M124.9,11.4h-2.9v16.2h2.9V11.4z"/>
	<path class="st0" d="M43.7,17.3c0.7-2,0.4-4.3-0.6-6.1c-1.6-2.9-4.9-4.3-8.1-3.6C33.5,5.9,31.4,5,29.3,5c-3.3,0-6.2,2.1-7.2,5.2
		c-2.1,0.4-3.9,1.8-5,3.6c-1.6,2.8-1.3,6.4,0.9,8.9c-0.7,2-0.4,4.3,0.6,6.1c1.6,2.9,4.9,4.3,8.1,3.6c1.4,1.6,3.5,2.5,5.6,2.5
		c3.3,0,6.2-2.1,7.2-5.2c2.1-0.4,3.9-1.8,5-3.6C46.3,23.3,45.9,19.7,43.7,17.3L43.7,17.3z M32.4,33c-1.3,0-2.6-0.5-3.6-1.3
		c0,0,0.1-0.1,0.2-0.1l6-3.5c0.3-0.2,0.5-0.5,0.5-0.9v-8.4l2.5,1.5c0,0,0,0,0,0.1v7C38,30.5,35.5,33,32.4,33z M20.3,27.9
		c-0.7-1.1-0.9-2.5-0.7-3.8c0,0,0.1,0.1,0.2,0.1l6,3.5c0.3,0.2,0.7,0.2,1,0l7.3-4.2v2.9c0,0,0,0.1,0,0.1l-6,3.5
		C25.3,31.5,21.9,30.6,20.3,27.9L20.3,27.9z M18.8,14.8c0.7-1.1,1.7-2,2.9-2.5c0,0.1,0,0.1,0,0.2v6.9c0,0.4,0.2,0.7,0.5,0.8l7.3,4.2
		L27,26c0,0-0.1,0-0.1,0l-6-3.5C18.1,21,17.2,17.5,18.8,14.8L18.8,14.8z M39.5,19.7l-7.3-4.2l2.5-1.5c0,0,0.1,0,0.1,0l6,3.5
		c2.7,1.6,3.6,5,2.1,7.7c-0.7,1.1-1.7,2-2.9,2.5v-7.1C40,20.2,39.8,19.8,39.5,19.7L39.5,19.7z M42,15.9c0,0-0.1-0.1-0.2-0.1l-6-3.5
		c-0.3-0.2-0.7-0.2-1,0l-7.3,4.2v-2.9c0,0,0-0.1,0-0.1l6-3.5c2.7-1.6,6.1-0.6,7.7,2.1C42,13.3,42.2,14.6,42,15.9L42,15.9z
		 M26.2,21.1l-2.5-1.5c0,0,0,0,0-0.1v-7c0-3.1,2.5-5.6,5.6-5.6c1.3,0,2.6,0.5,3.6,1.3c0,0-0.1,0.1-0.2,0.1l-6,3.5
		c-0.3,0.2-0.5,0.5-0.5,0.8L26.2,21.1L26.2,21.1z M27.6,18.1l3.2-1.9l3.2,1.9v3.8l-3.2,1.9l-3.2-1.9V18.1z"/>
</g>
</svg>
