<?xml version="1.0" encoding="utf-8"?>
<!-- Generator: Adobe Illustrator 28.1.0, SVG Export Plug-In . SVG Version: 6.00 Build 0)  -->
<svg version="1.1" id="Camada_1" xmlns="http://www.w3.org/2000/svg" xmlns:xlink="http://www.w3.org/1999/xlink" x="0px" y="0px"
	 viewBox="0 0 141 40" style="enable-background:new 0 0 141 40;" xml:space="preserve">
<style type="text/css">
	.st0{fill:#FFFFFF;}
</style>
<g>
	<path class="st0" d="M42,15.9c3,0,5.6,2,5.6,5.7c0,0.2,0,0.5,0,0.8h-9.1c0.1,1.9,1.6,3.1,3.6,3.1c1.6,0,2.7-0.7,3.3-1.8l1.9,1.4
		c-1,1.6-2.8,2.7-5.3,2.7c-3.5,0-6-2.5-6-6C36,18.5,38.5,15.9,42,15.9z M38.6,20.6H45c-0.3-1.7-1.6-2.6-3.1-2.6S38.9,18.9,38.6,20.6
		z"/>
	<path class="st0" d="M50.2,16.1h2.5v1.6c0.7-0.9,2.1-1.8,3.7-1.8c3.2,0,5.6,2.7,5.6,6c0,3.3-2.4,6-5.6,6c-1.7,0-3.1-0.9-3.7-1.8
		v6.4h-2.5V16.1z M56,18.2c-2.1,0-3.5,1.6-3.5,3.7s1.4,3.7,3.5,3.7c2,0,3.4-1.6,3.4-3.7S58,18.2,56,18.2z"/>
	<path class="st0" d="M67.1,10.3h-2.5v17.3h2.5V10.3z"/>
	<path class="st0" d="M71.8,13.6c-0.9,0-1.7-0.8-1.7-1.7c0-0.9,0.8-1.7,1.7-1.7c1,0,1.7,0.8,1.7,1.7C73.5,12.8,72.8,13.6,71.8,13.6z
		 M70.6,16.1h2.5v11.6h-2.5V16.1z"/>
	<path class="st0" d="M81.8,27.9c-3.5,0-6.1-2.6-6.1-6s2.6-6,6.1-6c2.4,0,4.4,1.3,5.4,3.2L85,20.3c-0.6-1.2-1.7-2-3.2-2
		c-2.1,0-3.5,1.6-3.5,3.7s1.5,3.7,3.5,3.7c1.5,0,2.6-0.9,3.2-2l2.2,1.2C86.2,26.6,84.2,27.9,81.8,27.9z"/>
	<path class="st0" d="M94.3,15.9c1.7,0,3.1,0.9,3.7,1.8v-1.6h2.5v11.6H98v-1.6c-0.7,0.9-2,1.8-3.7,1.8c-3.2,0-5.6-2.7-5.6-6
		C88.7,18.6,91.1,15.9,94.3,15.9z M94.7,18.2c-2.1,0-3.4,1.6-3.4,3.7s1.4,3.7,3.4,3.7c2.1,0,3.4-1.6,3.4-3.7S96.8,18.2,94.7,18.2z"
		/>
	<path class="st0" d="M104.9,27.7v-9.3h-2.4v-2.3h2.4v-3.2h2.5v3.2h4.4v2.3h-4.4v7h4.4v2.3H104.9z"/>
	<path class="st0" d="M34.8,16.1v2.3h-6.2v9.3H26V16.1H34.8z"/>
	<path class="st0" d="M34.8,11.8v2.3h-11v13.6h-2.5V11.8H34.8z"/>
	<path class="st0" d="M34.8,7.5v2.3H18.9v17.9h-2.5V7.5H34.8z"/>
	<path class="st0" d="M119.1,15.9c3,0,5.6,2,5.6,5.7c0,0.2,0,0.5,0,0.8h-9.1c0.1,1.9,1.6,3.1,3.6,3.1c1.6,0,2.7-0.7,3.3-1.8l1.9,1.4
		c-1,1.6-2.8,2.7-5.3,2.7c-3.5,0-6-2.5-6-6C113,18.5,115.5,15.9,119.1,15.9z M115.6,20.6h6.4c-0.3-1.7-1.6-2.6-3.1-2.6
		C117.5,18,116,18.9,115.6,20.6z"/>
</g>
</svg>
