<?xml version="1.0" encoding="utf-8"?>
<!-- Generator: Adobe Illustrator 28.1.0, SVG Export Plug-In . SVG Version: 6.00 Build 0)  -->
<svg version="1.1" id="Camada_1" xmlns="http://www.w3.org/2000/svg" xmlns:xlink="http://www.w3.org/1999/xlink" x="0px" y="0px"
	 viewBox="0 0 60 60" style="enable-background:new 0 0 60 60;" xml:space="preserve">
<style type="text/css">
	.st0{fill-rule:evenodd;clip-rule:evenodd;fill:#635BFF;}
</style>
<path class="st0" d="M26.4,19.9c0-2.1,1.7-3,4.7-3c4.2,0,9.5,1.3,13.6,3.5V7.5C40.2,5.7,35.7,5,31.1,5C20,5,12.5,10.8,12.5,20.5
	c0,15.2,20.9,12.8,20.9,19.3c0,2.5-2.2,3.3-5.3,3.3c-4.6,0-10.4-1.9-15-4.4v13.1c5.1,2.2,10.3,3.1,15,3.1c11.4,0,19.3-5.7,19.3-15.5
	C47.4,23.1,26.4,26,26.4,19.9L26.4,19.9z"/>
</svg>
