<?xml version="1.0" encoding="utf-8"?>
<!-- Generator: Adobe Illustrator 28.1.0, SVG Export Plug-In . SVG Version: 6.00 Build 0)  -->
<svg version="1.1" id="Camada_1" xmlns="http://www.w3.org/2000/svg" xmlns:xlink="http://www.w3.org/1999/xlink" x="0px" y="0px"
	 viewBox="0 0 141 40" style="enable-background:new 0 0 141 40;" xml:space="preserve">
<style type="text/css">
	.st0{fill:#FFFFFF;}
</style>
<g>
	<g>
		<path class="st0" d="M39.4,22.9c-0.4-0.4-1-0.5-1.5-0.2l-10.5,7.7v0.3c0.6-0.1,1.1,0.4,1.2,0.9c0.1,0.6-0.4,1.1-0.9,1.2
			c-0.1,0-0.2,0-0.3,0l0,0c0.2,0,0.5-0.1,0.7-0.2l11.1-8.2C39.7,24,39.8,23.4,39.4,22.9z"/>
		<path class="st0" d="M27.4,32.9c-0.6-0.1-1-0.6-0.9-1.2c0.1-0.5,0.5-0.9,0.9-0.9l0,0v-0.3l-10.5-7.7c-0.5-0.3-1.1-0.2-1.5,0.2
			c-0.3,0.5-0.2,1.1,0.2,1.5l11.1,8.2C27,32.8,27.2,32.8,27.4,32.9L27.4,32.9L27.4,32.9z"/>
		<path class="st0" d="M27.4,29.6c-1.2,0-2.2,1-2.2,2.2c0,1.2,1,2.2,2.2,2.2c1.2,0,2.2-1,2.2-2.2l0,0C29.6,30.6,28.6,29.6,27.4,29.6
			z M27.4,32.9c-0.6,0-1.1-0.5-1.1-1.1c0-0.6,0.5-1.1,1.1-1.1s1.1,0.5,1.1,1.1c0,0,0,0,0,0C28.5,32.4,28,32.9,27.4,32.9
			C27.4,32.9,27.4,32.9,27.4,32.9z"/>
		<path class="st0" d="M18.4,11.2c-0.6,0-1.1-0.5-1.1-1.1V7.3c-0.1-0.6,0.4-1.2,1-1.3s1.2,0.4,1.3,1c0,0.1,0,0.2,0,0.3v2.8
			C19.6,10.7,19,11.2,18.4,11.2z"/>
		<circle class="st0" cx="18.4" cy="20.1" r="1.1"/>
		<circle class="st0" cx="18.4" cy="16.7" r="1.1"/>
		<circle class="st0" cx="18.4" cy="13.4" r="1.1"/>
		<path class="st0" d="M36.4,14.5c-0.6,0-1.1-0.5-1.1-1.1v-2.8c0-0.6,0.5-1.1,1.1-1.1c0.6,0,1.1,0.5,1.1,1.1v2.8
			C37.6,14,37.1,14.5,36.4,14.5C36.4,14.5,36.4,14.5,36.4,14.5z"/>
		<circle class="st0" cx="36.5" cy="20.1" r="1.1"/>
		<circle class="st0" cx="36.5" cy="16.7" r="1.1"/>
		<circle class="st0" cx="36.5" cy="7.3" r="1.1"/>
		<path class="st0" d="M27.4,24.6c-0.6,0-1.1-0.5-1.1-1.1v-2.9c0.1-0.6,0.6-1.1,1.3-1c0.5,0.1,0.9,0.5,1,1v2.8
			C28.6,24,28.1,24.6,27.4,24.6C27.4,24.6,27.4,24.6,27.4,24.6z"/>
		<circle class="st0" cx="27.4" cy="26.7" r="1.1"/>
		<circle class="st0" cx="27.4" cy="17.3" r="1.1"/>
		<circle class="st0" cx="27.4" cy="13.9" r="1.1"/>
		<path class="st0" d="M31.9,17.9c-0.6,0-1.1-0.5-1.1-1.1v-2.8c-0.1-0.6,0.4-1.2,1-1.3c0.6-0.1,1.2,0.4,1.3,1c0,0.1,0,0.2,0,0.3v2.8
			C33.1,17.4,32.6,17.9,31.9,17.9z"/>
		<circle class="st0" cx="31.9" cy="10.6" r="1.1"/>
		<circle class="st0" cx="31.9" cy="23.4" r="1.1"/>
		<circle class="st0" cx="31.9" cy="20" r="1.1"/>
		<circle class="st0" cx="22.9" cy="23.4" r="1.1"/>
		<circle class="st0" cx="22.9" cy="13.9" r="1.1"/>
		<circle class="st0" cx="22.9" cy="10.6" r="1.1"/>
		<path class="st0" d="M22.9,21.2c-0.6,0-1.1-0.5-1.1-1.1v-2.9c0-0.6,0.5-1.1,1.1-1.1c0.6,0,1.1,0.5,1.1,1.1v2.9
			C24,20.7,23.5,21.2,22.9,21.2z"/>
	</g>
	<g>
		<polygon class="st0" points="51.3,24 47.5,12.5 45,12.5 50.2,26.8 50.6,26.8 51.9,26.8 52.3,26.8 57.6,12.5 55.1,12.5 		"/>
		<path class="st0" d="M65.9,16.6c-0.7-0.4-1.5-0.7-2.5-0.7c-0.9,0-1.7,0.2-2.4,0.7c-0.7,0.4-1.3,1.1-1.7,1.9
			c-0.4,0.8-0.6,1.8-0.6,2.9v0.4c0,1,0.2,1.9,0.6,2.6c0.4,0.8,1,1.4,1.7,1.8c0.7,0.4,1.6,0.7,2.7,0.7c1.1,0,1.9-0.2,2.6-0.6
			c0.7-0.4,1.2-0.9,1.5-1.4l-1.2-1.1c-0.3,0.4-0.7,0.8-1.2,1c-0.4,0.2-1,0.4-1.6,0.4c-0.6,0-1.2-0.2-1.6-0.5c-0.4-0.3-0.8-0.7-1-1.2
			c-0.2-0.4-0.3-0.9-0.3-1.5h7.1v-0.9c0-1-0.2-1.9-0.5-2.7C67,17.7,66.6,17.1,65.9,16.6z M65.7,20.5h-4.9c0.1-0.4,0.1-0.7,0.2-1.1
			c0.2-0.6,0.5-1,0.9-1.3c0.4-0.3,0.9-0.5,1.4-0.5c0.6,0,1,0.1,1.4,0.4c0.3,0.3,0.6,0.6,0.7,1c0.2,0.4,0.2,0.8,0.3,1.3V20.5z"/>
		<path class="st0" d="M74.4,15.9c-0.7,0-1.4,0.2-1.8,0.6c-0.3,0.2-0.5,0.5-0.6,0.8l-0.1-1.2h-2.1v10.7H72v-7.2c0-0.1,0-0.3,0.1-0.4
			c0.2-0.4,0.5-0.7,0.9-0.9c0.4-0.2,0.8-0.3,1.4-0.3c0.2,0,0.3,0,0.5,0c0.2,0,0.3,0,0.5,0.1l0-2C75.2,16,75,16,74.9,16
			C74.7,16,74.5,15.9,74.4,15.9z"/>
		<path class="st0" d="M81.2,25.2c-0.2,0-0.4,0-0.6-0.1c-0.2-0.1-0.3-0.2-0.4-0.4c-0.1-0.2-0.2-0.4-0.2-0.8v-6.2H82v-1.6h-1.9v-2.6
			h-2.1v2.6h-1.8v1.6h1.8v6.3c0,0.7,0.1,1.3,0.3,1.7c0.2,0.4,0.5,0.7,0.9,0.9c0.4,0.2,0.8,0.3,1.3,0.3c0.3,0,0.6,0,0.9-0.1
			c0.2,0,0.5-0.1,0.6-0.2v-1.7c-0.1,0-0.2,0-0.4,0.1C81.5,25.2,81.4,25.2,81.2,25.2z"/>
		<path class="st0" d="M90.8,16.6c-0.7-0.4-1.5-0.7-2.5-0.7c-0.9,0-1.7,0.2-2.4,0.7c-0.7,0.4-1.3,1.1-1.7,1.9
			c-0.4,0.8-0.6,1.8-0.6,2.9v0.4c0,1,0.2,1.9,0.6,2.6c0.4,0.8,1,1.4,1.7,1.8c0.7,0.4,1.6,0.7,2.7,0.7c1.1,0,1.9-0.2,2.6-0.6
			c0.7-0.4,1.2-0.9,1.5-1.4l-1.2-1.1c-0.3,0.4-0.7,0.8-1.2,1c-0.4,0.2-1,0.4-1.6,0.4c-0.6,0-1.2-0.2-1.6-0.5c-0.4-0.3-0.8-0.7-1-1.2
			c-0.2-0.4-0.3-0.9-0.3-1.5h7.1v-0.9c0-1-0.2-1.9-0.5-2.7C92,17.7,91.5,17.1,90.8,16.6z M90.6,20.5h-4.9c0.1-0.4,0.1-0.7,0.2-1.1
			c0.2-0.6,0.5-1,0.9-1.3c0.4-0.3,0.9-0.5,1.4-0.5c0.6,0,1,0.1,1.4,0.4c0.3,0.3,0.6,0.6,0.7,1c0.2,0.4,0.2,0.8,0.3,1.3V20.5z"/>
		<polygon class="st0" points="103.1,16.1 100.6,16.1 98.5,19.8 96.3,16.1 93.9,16.1 97.3,21.4 93.8,26.8 96.2,26.8 98.5,23 
			100.8,26.8 103.2,26.8 99.7,21.4 		"/>
		<path class="st0" d="M115.7,12.5h-0.9h-0.5l-5.4,14.3h2.3l1.2-3.5h5.7l1.2,3.5h2.3l-5.5-14.3H115.7z M113,21.5l2.2-6.3l2.2,6.3
			H113z"/>
		<rect x="123.5" y="12.5" class="st0" width="2.2" height="14.3"/>
	</g>
</g>
</svg>
